<svg xmlns="http://www.w3.org/2000/svg" width="11.8" height="12.222" viewBox="0 0 11.8 12.222">
  <g id="pause-two-lines" transform="translate(-39.15 0)">
    <path id="Pfad_91" data-name="Pfad 91" d="M78.473,12.222a.591.591,0,0,0,.589-.589V.589A.591.591,0,0,0,78.473,0H68.939a.591.591,0,0,0-.589.589V11.633a.591.591,0,0,0,.589.589Z" transform="translate(-28.112)" fill="#fff"/>
    <path id="Pfad_92" data-name="Pfad 92" d="M6.273,12.222a.591.591,0,0,0,.589-.589V.589A.591.591,0,0,0,6.273,0H2.739A.591.591,0,0,0,2.15.589V11.633a.591.591,0,0,0,.589.589Z" transform="translate(37)" fill="#fff"/>
  </g>
</svg>
