<svg xmlns="http://www.w3.org/2000/svg" width="13.373" height="13.354" viewBox="0 0 13.373 13.354">
  <g id="filter-tool-black-shape_1_" data-name="filter-tool-black-shape (1)" transform="translate(0 -0.291)">
    <path id="Pfad_59" data-name="Pfad 59" d="M13.316.661a.568.568,0,0,0-.56-.37H.617a.567.567,0,0,0-.56.37.547.547,0,0,0,.133.664L4.866,6V10.61a.584.584,0,0,0,.18.427l2.428,2.428a.564.564,0,0,0,.427.18.66.66,0,0,0,.237-.048.567.567,0,0,0,.37-.56V6l4.676-4.676A.547.547,0,0,0,13.316.661Z" transform="translate(0)" fill="#2c2c2c"/>
  </g>
</svg>
