<svg xmlns="http://www.w3.org/2000/svg" width="19.588" height="19.507" viewBox="0 0 19.588 19.507">
  <g id="moon" transform="translate(0 -0.652)">
    <g id="Gruppe_157" data-name="Gruppe 157" transform="translate(0 0.652)">
      <path id="Pfad_71" data-name="Pfad 71" d="M19.112,11.768a.689.689,0,0,0-.576.125,7.349,7.349,0,0,1-2.229,1.3,6.981,6.981,0,0,1-2.53.451A7.355,7.355,0,0,1,6.412,6.282a7.72,7.72,0,0,1,.4-2.43A6.726,6.726,0,0,1,8.015,1.7a.639.639,0,0,0-.1-.9A.689.689,0,0,0,7.339.672a10.108,10.108,0,0,0-5.31,3.557,9.918,9.918,0,1,0,17.534,8.316A.608.608,0,0,0,19.112,11.768Z" transform="translate(0 -0.652)" fill="#2c2c2c"/>
    </g>
  </g>
</svg>
