<svg xmlns="http://www.w3.org/2000/svg" width="14.725" height="15.952" viewBox="0 0 14.725 15.952">
  <g id="power-button-off" transform="translate(-18.275)">
    <g id="Gruppe_59" data-name="Gruppe 59" transform="translate(18.275)">
      <path id="Pfad_67" data-name="Pfad 67" d="M202.225,8.59a1.244,1.244,0,0,0,1.227-1.227V1.227a1.179,1.179,0,0,0-.364-.863,1.2,1.2,0,0,0-1.726,0,1.179,1.179,0,0,0-.364.863V7.363a1.244,1.244,0,0,0,1.227,1.227Z" transform="translate(-194.863 0)" fill="#fff"/>
      <path id="Pfad_68" data-name="Pfad 68" d="M32.228,76.146a7.222,7.222,0,0,0-2.171-2.588,1.191,1.191,0,0,0-.911-.24,1.137,1.137,0,0,0-.805.479,1.167,1.167,0,0,0-.235.906,1.193,1.193,0,0,0,.475.81,4.9,4.9,0,0,1,1.452,1.735,4.889,4.889,0,0,1,.125,4.089,4.861,4.861,0,0,1-2.617,2.617,4.855,4.855,0,0,1-3.806,0,4.86,4.86,0,0,1-2.617-2.617,4.888,4.888,0,0,1,.125-4.089,4.9,4.9,0,0,1,1.452-1.735,1.194,1.194,0,0,0,.475-.81,1.167,1.167,0,0,0-.235-.906,1.133,1.133,0,0,0-.8-.479,1.212,1.212,0,0,0-.916.24,7.319,7.319,0,0,0-2.358,8.733,7.273,7.273,0,0,0,3.921,3.921,7.267,7.267,0,0,0,5.714,0,7.271,7.271,0,0,0,3.921-3.921A7.163,7.163,0,0,0,33,79.434,7.252,7.252,0,0,0,32.228,76.146Z" transform="translate(-18.275 -70.844)" fill="#fff"/>
    </g>
  </g>
</svg>
