<svg xmlns="http://www.w3.org/2000/svg" width="20" height="19" viewBox="0 0 20 19">
  <g id="Gruppe_39" data-name="Gruppe 39" transform="translate(-44 -327)">
    <path id="Rechteck_99" data-name="Rechteck 99" d="M1,0H1A1,1,0,0,1,2,1V18a0,0,0,0,1,0,0H0a0,0,0,0,1,0,0V1A1,1,0,0,1,1,0Z" transform="translate(44 327)" fill="#2c2c2c"/>
    <path id="Rechteck_100" data-name="Rechteck 100" d="M0,0H19a1,1,0,0,1,1,1V1a1,1,0,0,1-1,1H0A0,0,0,0,1,0,2V0A0,0,0,0,1,0,0Z" transform="translate(44 344)" fill="#2c2c2c"/>
    <rect id="Rechteck_101" data-name="Rechteck 101" width="12" height="2" rx="1" transform="translate(47 329)" fill="#2c2c2c"/>
    <rect id="Rechteck_107" data-name="Rechteck 107" width="9" height="2" rx="1" transform="translate(47 341)" fill="#2c2c2c"/>
    <rect id="Rechteck_103" data-name="Rechteck 103" width="3" height="2" rx="1" transform="translate(51 332)" fill="#2c2c2c"/>
    <rect id="Rechteck_106" data-name="Rechteck 106" width="8" height="2" rx="1" transform="translate(54 338)" fill="#2c2c2c"/>
    <rect id="Rechteck_105" data-name="Rechteck 105" width="8" height="2" rx="1" transform="translate(50 335)" fill="#2c2c2c"/>
  </g>
</svg>
