<svg xmlns="http://www.w3.org/2000/svg" width="20" height="19.593" viewBox="0 0 20 19.593">
  <g id="gear-option" transform="translate(0 -3.762)">
    <g id="Gruppe_53" data-name="Gruppe 53" transform="translate(0 3.762)">
      <g id="Gruppe_52" data-name="Gruppe 52" transform="translate(0 0)">
        <path id="Pfad_64" data-name="Pfad 64" d="M17.352,11.154l-.1-.034-.372-.887.04-.091c1.126-2.553,1.048-2.629.861-2.814l-1.5-1.465a.4.4,0,0,0-.262-.1,9.6,9.6,0,0,0-2.558,1l-.089.04-.915-.368-.037-.091c-1.043-2.582-1.15-2.582-1.409-2.582H8.9c-.259,0-.376,0-1.343,2.587l-.036.094-.91.371-.087-.036a14.013,14.013,0,0,0-2.606-.954.4.4,0,0,0-.263.1L2.147,7.4c-.191.188-.27.267.915,2.766l.044.093-.372.886-.091.035C0,12.2,0,12.3,0,12.562V14.64c0,.267,0,.377,2.648,1.326L2.742,16l.372.883-.04.09C1.949,19.527,2.02,19.6,2.212,19.787l1.5,1.467a.413.413,0,0,0,.264.1,9.632,9.632,0,0,0,2.558-1l.089-.042.915.37.036.092c1.043,2.581,1.151,2.581,1.41,2.581h2.121c.266,0,.377,0,1.344-2.588l.036-.094L13.4,20.3l.087.035a13.935,13.935,0,0,0,2.6.955.4.4,0,0,0,.264-.1l1.505-1.472c.189-.189.268-.266-.918-2.763l-.044-.094.372-.882.089-.035C20,14.919,20,14.819,20,14.552V12.476C20,12.209,20,12.1,17.352,11.154ZM10,16.928a3.369,3.369,0,1,1,3.436-3.369A3.408,3.408,0,0,1,10,16.928Z" transform="translate(0 -3.762)" fill="#fff"/>
      </g>
    </g>
  </g>
</svg>
