<svg xmlns="http://www.w3.org/2000/svg" width="18" height="18" viewBox="0 0 18 18">
  <g id="teamwork_2_" data-name="teamwork (2)" transform="translate(0 -0.005)">
    <g id="Gruppe_41" data-name="Gruppe 41" transform="translate(6.749 0.005)">
      <g id="Gruppe_40" data-name="Gruppe 40" transform="translate(0 0)">
        <circle id="Ellipse_3" data-name="Ellipse 3" cx="2.25" cy="2.25" r="2.25" fill="#2c2c2c"/>
      </g>
    </g>
    <g id="Gruppe_43" data-name="Gruppe 43" transform="translate(5.624 5.63)">
      <g id="Gruppe_42" data-name="Gruppe 42">
        <path id="Pfad_60" data-name="Pfad 60" d="M166.746,165l-.511-3.978A1.121,1.121,0,0,0,165.117,160H164.5a.567.567,0,0,0-.4.164l-.727.727-.727-.727a.567.567,0,0,0-.4-.164h-.615a1.118,1.118,0,0,0-1.118,1L160,165a.564.564,0,0,0,.558.633h.607l.47,5.737a1.121,1.121,0,0,0,1.119,1.012h1.232a1.125,1.125,0,0,0,1.12-1.023l.469-5.727h.606a.561.561,0,0,0,.422-.191A.554.554,0,0,0,166.746,165Z" transform="translate(-160 -160.005)" fill="#2c2c2c"/>
      </g>
    </g>
    <g id="Gruppe_45" data-name="Gruppe 45" transform="translate(12.374 0.005)">
      <g id="Gruppe_44" data-name="Gruppe 44" transform="translate(0 0)">
        <circle id="Ellipse_4" data-name="Ellipse 4" cx="2.25" cy="2.25" r="2.25" fill="#2c2c2c"/>
      </g>
    </g>
    <g id="Gruppe_47" data-name="Gruppe 47" transform="translate(1.124 0.005)">
      <g id="Gruppe_46" data-name="Gruppe 46" transform="translate(0 0)">
        <path id="Pfad_61" data-name="Pfad 61" d="M34.249,0a2.25,2.25,0,1,0,2.25,2.25A2.252,2.252,0,0,0,34.249,0Z" transform="translate(-31.999 -0.005)" fill="#2c2c2c"/>
      </g>
    </g>
    <g id="Gruppe_49" data-name="Gruppe 49" transform="translate(12.517 5.63)">
      <g id="Gruppe_48" data-name="Gruppe 48">
        <path id="Pfad_62" data-name="Pfad 62" d="M361.54,165l-.511-3.977a1.12,1.12,0,0,0-1.118-1.014H359.3a.567.567,0,0,0-.4.164l-.727.727-.727-.727a.566.566,0,0,0-.4-.164h-.617a1.071,1.071,0,0,0-.2.037,2.19,2.19,0,0,1,.292.846l.51,3.964a1.683,1.683,0,0,1-.412,1.334,1.631,1.631,0,0,1-.558.4l.373,3.66a1.121,1.121,0,0,0,1.119,1.012h1.232a1.125,1.125,0,0,0,1.12-1.023l.468-4.6h.606a.561.561,0,0,0,.422-.191A.554.554,0,0,0,361.54,165Z" transform="translate(-356.063 -160.005)" fill="#2c2c2c"/>
      </g>
    </g>
    <g id="Gruppe_51" data-name="Gruppe 51" transform="translate(-0.001 5.63)">
      <g id="Gruppe_50" data-name="Gruppe 50" transform="translate(0)">
        <path id="Pfad_63" data-name="Pfad 63" d="M4.92,166.181a1.685,1.685,0,0,1-.407-1.326l.512-3.995a2.08,2.08,0,0,1,.28-.819A1.059,1.059,0,0,0,5.116,160H4.5a.567.567,0,0,0-.4.164l-.727.727-.727-.727a.566.566,0,0,0-.4-.164H1.634a1.118,1.118,0,0,0-1.118,1L0,165a.563.563,0,0,0,.558.633h.607l.47,4.612a1.121,1.121,0,0,0,1.119,1.012H3.991a1.125,1.125,0,0,0,1.12-1.023l.373-3.651A1.687,1.687,0,0,1,4.92,166.181Z" transform="translate(0.001 -160.005)" fill="#2c2c2c"/>
      </g>
    </g>
  </g>
</svg>
