<svg xmlns="http://www.w3.org/2000/svg" width="10.625" height="9.999" viewBox="0 0 10.625 9.999">
  <g id="Gruppe_251" data-name="Gruppe 251" transform="translate(-314.812 -865.791)">
    <path id="Differenzmenge_1" data-name="Differenzmenge 1" d="M-4036.375-1170a.6.6,0,0,1-.44-.186.6.6,0,0,1-.186-.439v-1.5l2.439-2.439a.6.6,0,0,0,.186-.439.6.6,0,0,0-.186-.439l-2.439-2.439v-1.5a.6.6,0,0,1,.186-.439.6.6,0,0,1,.44-.186.6.6,0,0,1,.439.186l4.375,4.375a.6.6,0,0,1,.186.439.6.6,0,0,1-.186.439l-4.375,4.375A.6.6,0,0,1-4036.375-1170Z" transform="translate(4356.812 2045.79)" fill="#1bcbda"/>
    <path id="Differenzmenge_2" data-name="Differenzmenge 2" d="M-4036.375-1170a.6.6,0,0,1-.44-.186.6.6,0,0,1-.186-.439v-1.5l2.439-2.439a.6.6,0,0,0,.186-.439.6.6,0,0,0-.186-.439l-2.439-2.439v-1.5a.6.6,0,0,1,.186-.439.6.6,0,0,1,.44-.186.6.6,0,0,1,.439.186l4.375,4.375a.6.6,0,0,1,.186.439.6.6,0,0,1-.186.439l-4.375,4.375A.6.6,0,0,1-4036.375-1170Z" transform="translate(4351.812 2045.79)" fill="#1bcbda"/>
  </g>
</svg>
