<svg id="sun" xmlns="http://www.w3.org/2000/svg" width="24.545" height="24.545" viewBox="0 0 24.545 24.545">
  <g id="Gruppe_178" data-name="Gruppe 178">
    <path id="Pfad_81" data-name="Pfad 81" d="M17.417,11.269a6.148,6.148,0,1,0,6.148,6.148A6.155,6.155,0,0,0,17.417,11.269Z" transform="translate(-5.144 -5.144)" fill="#fff"/>
    <g id="Gruppe_177" data-name="Gruppe 177">
      <g id="Gruppe_169" data-name="Gruppe 169" transform="translate(11.073)">
        <path id="Pfad_82" data-name="Pfad 82" d="M21.573,4.318a1.2,1.2,0,0,1-1.2-1.2V1.2a1.2,1.2,0,1,1,2.4,0V3.119A1.2,1.2,0,0,1,21.573,4.318Z" transform="translate(-20.373 0)" fill="#fff"/>
      </g>
      <g id="Gruppe_170" data-name="Gruppe 170" transform="translate(11.073 20.227)">
        <path id="Pfad_83" data-name="Pfad 83" d="M21.573,37.215a1.2,1.2,0,0,0-1.2,1.2v1.919a1.2,1.2,0,1,0,2.4,0V38.415A1.2,1.2,0,0,0,21.573,37.215Z" transform="translate(-20.373 -37.215)" fill="#fff"/>
      </g>
      <g id="Gruppe_171" data-name="Gruppe 171" transform="translate(17.546 3.243)">
        <path id="Pfad_84" data-name="Pfad 84" d="M32.633,9.372a1.2,1.2,0,0,1,0-1.7L33.99,6.318a1.2,1.2,0,1,1,1.7,1.7L34.329,9.372A1.2,1.2,0,0,1,32.633,9.372Z" transform="translate(-32.282 -5.967)" fill="#fff"/>
      </g>
      <g id="Gruppe_172" data-name="Gruppe 172" transform="translate(3.243 17.546)">
        <path id="Pfad_85" data-name="Pfad 85" d="M9.371,32.635a1.2,1.2,0,0,0-1.7,0L6.318,33.991a1.2,1.2,0,0,0,1.7,1.7L9.371,34.33A1.2,1.2,0,0,0,9.371,32.635Z" transform="translate(-5.967 -32.283)" fill="#fff"/>
      </g>
      <g id="Gruppe_173" data-name="Gruppe 173" transform="translate(20.227 11.073)">
        <path id="Pfad_86" data-name="Pfad 86" d="M37.215,21.573a1.2,1.2,0,0,1,1.2-1.2h1.919a1.2,1.2,0,1,1,0,2.4H38.415A1.2,1.2,0,0,1,37.215,21.573Z" transform="translate(-37.215 -20.373)" fill="#fff"/>
      </g>
      <g id="Gruppe_174" data-name="Gruppe 174" transform="translate(0 11.073)">
        <path id="Pfad_87" data-name="Pfad 87" d="M4.318,21.573a1.2,1.2,0,0,0-1.2-1.2H1.2a1.2,1.2,0,1,0,0,2.4H3.119A1.2,1.2,0,0,0,4.318,21.573Z" transform="translate(0 -20.373)" fill="#fff"/>
      </g>
      <g id="Gruppe_175" data-name="Gruppe 175" transform="translate(17.545 17.547)">
        <path id="Pfad_88" data-name="Pfad 88" d="M32.633,32.635a1.2,1.2,0,0,1,1.7,0l1.357,1.357a1.2,1.2,0,0,1-1.7,1.7l-1.357-1.357A1.2,1.2,0,0,1,32.633,32.635Z" transform="translate(-32.282 -32.284)" fill="#fff"/>
      </g>
      <g id="Gruppe_176" data-name="Gruppe 176" transform="translate(3.243 3.243)">
        <path id="Pfad_89" data-name="Pfad 89" d="M9.371,9.372a1.2,1.2,0,0,0,0-1.7L8.014,6.319a1.2,1.2,0,0,0-1.7,1.7L7.675,9.372A1.2,1.2,0,0,0,9.371,9.372Z" transform="translate(-5.967 -5.968)" fill="#fff"/>
      </g>
    </g>
  </g>
</svg>
